<svg xmlns="http://www.w3.org/2000/svg" viewBox="0 0 1036.49 153.2"><g id="Layer_2" data-name="Layer 2"><g id="Layer_1-2" data-name="Layer 1"><path d="M831.94,46.2l44.4,104h17.8l44.2-104h-17.8l-35.2,86-35.2-86Zm-32.36,104H816V46.2h-16.4ZM624.84,3.2v147h16.6V114.6l16.6-16,38.2,51.6h20l-47-62.4,43.2-41.6h-21.8l-43.8,42.2-5.4,21.4V3.2ZM521.23,90.4c2.8-21.4,17-32.8,33.8-32.8,19.4,0,32.4,12.4,32.4,32.8ZM555,43c-29.4,0-51,23.8-51,55.2,0,32.6,21.2,55,52.6,55,18.6,0,37.8-7.6,47-25.2L591,117.4c-6.2,14.4-17.6,21.2-34.2,21.2-19,0-33.8-11.8-35.8-35h83.8c.2-2.4.4-5,.4-7.2,0-31.8-18.8-53.4-50.2-53.4M417.71,0c-19.8,0-32.2,13.8-32.2,33.4V46.2h-18.4V60.8h18.4v89.4h16.4V60.8h47.2v89.4h16.4V60.8h31.8V46.2h-31.8V33.8c0-13.6,7.2-19,19-19a39.5,39.5,0,0,1,11,1.4V1.6A65.72,65.72,0,0,0,481.31,0c-19.8,0-32.2,13.8-32.2,33.4V46.2h-47.2V33.8c0-13.6,7.2-19,18.8-19a40.94,40.94,0,0,1,11.2,1.4V1.6A68.68,68.68,0,0,0,417.71,0m-161,150.2h97V135h-80.2V83h74V67.8h-74V18.4h79.8V3.2h-96.6Zm-89.11,0H184V46.2h-16.4Zm-97.36,3c28.2,0,44-14.4,52.8-28.8v25.8h16.8V74.6H75.6L63.2,89.4H123c-1,28.2-21.2,48.6-49.2,48.6C41.4,138,17,116.4,17,76.4c0-39.8,27.6-61.2,57.8-61.2,22.2,0,42,10.4,51,29.6l13.4-10C126.6,12,100.8,0,75,0,35.2,0,0,28.6,0,76.6c0,47.6,32,76.6,70.2,76.6"/><path d="M808.05,20.59a9.71,9.71,0,1,0-9.8-9.7,9.74,9.74,0,0,0,9.8,9.7"/><path d="M176.27,20.59a9.71,9.71,0,1,0-9.8-9.7,9.75,9.75,0,0,0,9.8,9.7"/><path d="M970.41,3,954,3.15V123.23c0,21.8,11.2,29.8,31.6,29.8,3,0,9.6-.6,12.6-1.8v-14.6a59.21,59.21,0,0,1-10,1.2c-11.4,0-17.8-1.8-17.8-16.6V48.48l4,13h26v-15h-30V3Z"/><path d="M747.85,3l-16.4.12V123.23c0,21.8,11.2,29.8,31.6,29.8,3,0,9.6-.6,12.6-1.8v-14.6a59.21,59.21,0,0,1-10,1.2c-11.4,0-17.8-1.8-17.8-16.6V48.48l4,13h26v-15h-30Z"/><path d="M1026.69,133.56a9.71,9.71,0,1,0,9.8,9.71,9.76,9.76,0,0,0-9.8-9.71"/></g></g></svg>