<?xml version="1.0" encoding="utf-8"?>
<!-- Generator: Adobe Illustrator 26.0.2, SVG Export Plug-In . SVG Version: 6.00 Build 0)  -->
<svg 
	version="1.1" 
	id="Layer_1" 
	xmlns="http://www.w3.org/2000/svg" 
	xmlns:xlink="http://www.w3.org/1999/xlink" 
	x="0px" y="0px"
	viewBox="0 0 1328.773 446.036"
	style="enable-background:new 0 0 1000 500;" 
	xml:space="preserve">
<style type="text/css">
	.st0{fill:#000000;}
	@media (prefers-color-scheme: dark) {
		.st0{fill:#ffffff;}
	}
</style>
<g>
	<path class="st0" d="M974.859,193.727l44.4,104h17.8l44.2-104h-17.8l-35.2,86l-35.2-86H974.859z M942.495,297.727h16.4v-104h-16.4
		V297.727z M767.76,150.727v147h16.6v-35.6l16.6-16l38.2,51.6h20l-47-62.4l43.2-41.6h-21.8l-43.8,42.2l-5.4,21.4v-106.6H767.76z
		 M664.141,237.927c2.8-21.4,17-32.8,33.8-32.8c19.4,0,32.4,12.4,32.4,32.8H664.141z M697.941,190.527c-29.4,0-51,23.8-51,55.2
		c0,32.6,21.2,55,52.6,55c18.6,0,37.8-7.6,47-25.2l-12.6-10.6c-6.2,14.4-17.6,21.2-34.2,21.2c-19,0-33.8-11.8-35.8-35h83.8
		c0.2-2.4,0.4-5,0.4-7.2C748.141,212.127,729.341,190.527,697.941,190.527 M560.627,147.527c-19.8,0-32.2,13.8-32.2,33.4v12.8h-18.4
		v14.6h18.4v89.4h16.4v-89.4h47.2v89.4h16.4v-89.4h31.8v-14.6h-31.8v-12.4c0-13.6,7.2-19,19-19c3.6,0,7.8,0.4,11,1.4v-14.6
		c-4-1-9.8-1.6-14.2-1.6c-19.8,0-32.2,13.8-32.2,33.4v12.8h-47.2v-12.4c0-13.6,7.2-19,18.8-19c3.6,0,8,0.4,11.2,1.4v-14.6
		C570.627,148.127,564.827,147.527,560.627,147.527 M399.59,297.727h97v-15.2h-80.2v-52h74v-15.2h-74v-49.4h79.8v-15.2h-96.6
		V297.727z M310.478,297.727h16.4v-104h-16.4V297.727z M213.115,300.727c28.2,0,44-14.4,52.8-28.8v25.8h16.8v-75.6h-64.2l-12.4,14.8
		h59.8c-1,28.2-21.2,48.6-49.2,48.6c-32.4,0-56.8-21.6-56.8-61.6c0-39.8,27.6-61.2,57.8-61.2c22.2,0,42,10.4,51,29.6l13.4-10
		c-12.6-22.8-38.4-34.8-64.2-34.8c-39.8,0-75,28.6-75,76.6C142.915,271.727,174.915,300.727,213.115,300.727"/>
	<path class="st0" d="M950.961,168.116c5.412,0,9.799-4.344,9.799-9.702c0-5.359-4.387-9.703-9.799-9.703
		c-5.412,0-9.799,4.344-9.799,9.703C941.162,163.772,945.549,168.116,950.961,168.116"/>
	<path class="st0" d="M319.188,168.116c5.412,0,9.799-4.344,9.799-9.702c0-5.359-4.387-9.703-9.799-9.703
		c-5.412,0-9.799,4.344-9.799,9.703C309.389,163.772,313.776,168.116,319.188,168.116"/>
	<path class="st0" d="M1113.33,150.559l-16.4,0.115v43.283v15v61.8c0,21.8,11.2,29.8,31.6,29.8c3,0,9.6-0.6,12.6-1.8v-14.6
		c-2.8,0.6-7.4,1.2-10,1.2c-11.4,0-17.8-1.8-17.8-16.6l0.004-72.755l4.017,12.955h25.979v-15h-30V150.559z"/>
	<path class="st0" d="M890.763,150.559l-16.4,0.115v43.283v15v61.8c0,21.8,11.2,29.8,31.6,29.8c3,0,9.6-0.6,12.6-1.8v-14.6
		c-2.8,0.6-7.4,1.2-10,1.2c-11.4,0-17.8-1.8-17.8-16.6l0.004-72.755l4.017,12.955h25.979v-15h-30V150.559z"/>
	<path class="st0" d="M1169.608,281.09c-5.412,0-9.8,4.344-9.8,9.702c0,5.359,4.388,9.703,9.8,9.703
		c5.412,0,9.799-4.344,9.799-9.703C1179.407,285.434,1175.02,281.09,1169.608,281.09"/>
</g>
</svg>
