<?xml version="1.0" encoding="utf-8"?>
<!-- Generator: Adobe Illustrator 26.0.2, SVG Export Plug-In . SVG Version: 6.00 Build 0)  -->
<svg 
	version="1.1" 
	id="Layer_1" 
	xmlns="http://www.w3.org/2000/svg" 
	xmlns:xlink="http://www.w3.org/1999/xlink" 
	x="0px" y="0px"
	viewBox="0 0 1000 500" 
	style="enable-background:new 0 0 1000 500;" 
	xml:space="preserve">
<style type="text/css">
	.st0{color:#000000;}
</style>
<g>
	<rect
		x="0"
		y="0"
		width="1000" 
		height="500" 
		fill="#ffffff"></rect>
</g>
<g>
	<path class="st0" d="M290.256,215.822c-31,0-55.2,22.4-55.2,55.199c0,32.6,24.2,55,55.2,55s55.4-22.4,55.4-55
		C345.656,238.222,321.256,215.822,290.256,215.822z M290.256,310.821c-22,0-38.4-15.8-38.4-39.8c0-24.199,16-40,38.4-40
		c22.6,0,38.6,15.801,38.6,40C328.856,295.021,312.856,310.821,290.256,310.821z"/>
	<polygon class="st0" points="229.199,176.022 206.799,176.022 141.599,240.222 135.999,263.021 135.999,176.022 119.199,176.022 
		119.199,323.021 135.999,323.021 135.999,268.021 154.799,249.421 215.199,323.021 235.799,323.021 166.599,237.822 	"/>
	<path class="st0" d="M420.285,216.021c-16.6,0-24.8,6.4-29.6,12l-5.2,22.4v-31.4h-16.4v104h16.4v-56.4
		c0-23,12.2-35.799,31.6-35.799c17.6,0,26.8,10.199,26.8,29.599v62.6h16.4v-65C460.285,231.822,445.685,216.021,420.285,216.021z"/>
	<path class="st0" d="M592.283,176.022h-16.4v59.599c-8.6-12-22.2-19.799-40.4-19.799c-32,0-52.8,24.4-52.8,55.199
		c0,30.6,20.8,55,52.8,55c18.4,0,31.4-7.8,39.6-18l2-24.8l13.2,39.8h17.4l-15.4-44.6V176.022z M537.883,311.021
		c-24.4,0-38.4-18-38.4-40c0-22.199,14-40.199,38.4-40.199c23.8,0,38.4,18,38.4,40.199
		C576.283,293.221,561.683,311.021,537.883,311.021z"/>
	<path class="st0" d="M813.37,175.623l-16.4,0.115v43.283v15v61.8c0,21.8,11.2,29.8,31.6,29.8c3,0,9.6-0.6,12.6-1.8v-14.6
		c-2.8,0.6-7.4,1.2-10,1.2c-11.4,0-17.8-1.8-17.8-16.6l0.004-72.755l4.017,12.955h25.979v-15h-30V175.623z"/>
	<path class="st0" d="M714.881,219.021h-16.4v52.8c0,26-12.2,39.8-30.801,39.8c-17,0-25.599-9.4-25.599-28.2v-64.4H625.68v66.8
		c0,25,14.401,40.2,38.801,40.2c19,0,28.4-9.2,34-18v-19.2l10.6,34.2h17.2l-11.4-35.8V219.021z"/>
	<rect x="747.878" y="219.021" class="st0" width="16.4" height="104"/>
	<path class="st0" d="M756.078,173.866c-5.412,0-9.8,4.343-9.8,9.702c0,5.358,4.388,9.702,9.8,9.702s9.799-4.344,9.799-9.702
		C765.877,178.209,761.49,173.866,756.078,173.866z"/>
	<path class="st0" d="M871.774,306.154c-5.412,0-9.8,4.344-9.8,9.702c0,5.359,4.388,9.703,9.8,9.703
		c5.412,0,9.799-4.344,9.799-9.703C881.573,310.498,877.186,306.154,871.774,306.154z"/>
</g>
</svg>
