<?xml version="1.0" encoding="UTF-8" standalone="no"?><svg xmlns="http://www.w3.org/2000/svg" xmlns:xlink="http://www.w3.org/1999/xlink" contentScriptType="application/ecmascript" contentStyleType="text/css" height="314px" preserveAspectRatio="none" style="width:346px;height:314px;background:#FFFFFF;" version="1.1" viewBox="0 0 346 314" width="346px" zoomAndPan="magnify"><defs/><g><!--MD5=[a8a1e5803fae7cc48e30da8bfb56cf9c]
cluster main-site--><polygon fill="#FFFFFF" points="21,12.1191,146,12.1191,153,44.8564,294,44.8564,294,110.1191,21,110.1191,21,12.1191" style="stroke:#000000;stroke-width:1.0;"/><line style="stroke:#000000;stroke-width:1.0;" x1="21" x2="153" y1="44.8564" y2="44.8564"/><text fill="#000000" font-family="Verdana" font-size="22" font-weight="bold" lengthAdjust="spacing" textLength="119" x="25" y="36.2373">main-site</text><!--MD5=[84426b58c88db05184126af8dfeeef4f]
entity public-page--><rect fill="#FFFFFF" height="37.0146" style="stroke:#000000;stroke-width:1.0;" width="102" x="37" y="57.1191"/><text fill="#000000" font-family="Verdana" font-size="14" lengthAdjust="spacing" textLength="82" x="47" y="81.1943">public-page</text><!--MD5=[40cb07ad812813a375a5c732df8cb7ed]
entity profile-page--><rect fill="#FFFFFF" height="37.0146" style="stroke:#000000;stroke-width:1.0;" width="104" x="174" y="57.1191"/><text fill="#000000" font-family="Verdana" font-size="14" lengthAdjust="spacing" textLength="84" x="184" y="81.1943">profile-page</text><!--MD5=[993e0d4fdeccee87e9dafe04241cdfbd]
entity MySQL--><path d="M260.5,261.1191 C260.5,251.1191 295,251.1191 295,251.1191 C295,251.1191 329.5,251.1191 329.5,261.1191 L329.5,287.1338 C329.5,297.1338 295,297.1338 295,297.1338 C295,297.1338 260.5,297.1338 260.5,287.1338 L260.5,261.1191 " fill="#FFFFFF" style="stroke:#000000;stroke-width:1.0;"/><path d="M260.5,261.1191 C260.5,271.1191 295,271.1191 295,271.1191 C295,271.1191 329.5,271.1191 329.5,261.1191 " fill="none" style="stroke:#000000;stroke-width:1.0;"/><text fill="#000000" font-family="Verdana" font-size="14" lengthAdjust="spacing" textLength="49" x="270.5" y="289.1943">MySQL</text><!--MD5=[3c192b75ae70093d2d02a2a65517a5ba]
entity sanity--><rect fill="#FFFFFF" height="37.0146" style="stroke:#000000;stroke-width:1.0;" width="62" x="57" y="154.1191"/><text fill="#000000" font-family="Verdana" font-size="14" lengthAdjust="spacing" textLength="42" x="67" y="178.1943">sanity</text><!--MD5=[031b45bc4b16005b8fb2ce0f270abe18]
entity Auth0--><rect fill="#FFFFFF" height="37.0146" style="stroke:#000000;stroke-width:1.0;" width="63" x="174.5" y="154.1191"/><text fill="#000000" font-family="Verdana" font-size="14" lengthAdjust="spacing" textLength="43" x="184.5" y="178.1943">Auth0</text><!--MD5=[645d8587175d8f7ad110cd370775931d]
entity API--><rect fill="#FFFFFF" height="37.0146" style="stroke:#000000;stroke-width:1.0;" width="44" x="273" y="154.1191"/><text fill="#000000" font-family="Verdana" font-size="14" lengthAdjust="spacing" textLength="24" x="283" y="178.1943">API</text><!--MD5=[45b0eadca74944c3f36f13baf211a2d4]
link public-page to sanity--><path d="M88,99.9091 C88,114.7291 88,133.8391 88,148.5991 " fill="none" id="public-page-sanity" style="stroke:#000000;stroke-width:1.0;"/><polygon fill="#000000" points="88,153.8291,92,144.8291,88,148.8291,84,144.8291,88,153.8291" style="stroke:#000000;stroke-width:1.0;"/><polygon fill="#000000" points="88,94.4891,84,103.4891,88,99.4891,92,103.4891,88,94.4891" style="stroke:#000000;stroke-width:1.0;"/><!--MD5=[44c97ba35081f4b5477b237b5a1b12fe]
link profile-page to Auth0--><path d="M221.19,99.4691 C218.06,114.3391 213.99,133.6491 210.86,148.5591 " fill="none" id="profile-page-Auth0" style="stroke:#000000;stroke-width:1.0;"/><polygon fill="#000000" points="209.74,153.8291,215.5036,145.8428,210.7672,148.9358,207.6742,144.1994,209.74,153.8291" style="stroke:#000000;stroke-width:1.0;"/><polygon fill="#000000" points="222.24,94.4891,216.4717,102.472,221.2099,99.3819,224.3001,104.1201,222.24,94.4891" style="stroke:#000000;stroke-width:1.0;"/><!--MD5=[8116ee8e6bfe8845cf7b4c035f7a7d53]
link profile-page to API--><path d="M241.98,98.6191 C253.11,113.9491 267.91,134.3191 279.04,149.6491 " fill="none" id="profile-page-API" style="stroke:#000000;stroke-width:1.0;"/><polygon fill="#000000" points="282.08,153.8291,280.0396,144.1939,279.1468,149.7799,273.5609,148.8871,282.08,153.8291" style="stroke:#000000;stroke-width:1.0;"/><polygon fill="#000000" points="238.98,94.4891,241.0204,104.1243,241.9132,98.5384,247.4991,99.4312,238.98,94.4891" style="stroke:#000000;stroke-width:1.0;"/><!--MD5=[89a44b422ab51d404e81e365f825c80c]
link API to MySQL--><path d="M295,196.7191 C295,211.3991 295,230.4691 295,245.8791 " fill="none" id="API-MySQL" style="stroke:#000000;stroke-width:1.0;"/><polygon fill="#000000" points="295,250.9591,299,241.9591,295,245.9591,291,241.9591,295,250.9591" style="stroke:#000000;stroke-width:1.0;"/><polygon fill="#000000" points="295,191.4091,291,200.4091,295,196.4091,299,200.4091,295,191.4091" style="stroke:#000000;stroke-width:1.0;"/><!--MD5=[3192fe6f6611d6720cf0a2b83df72a62]
@startuml
!theme plain
skinparam componentStyle rectangle

database MySQL

[sanity]
[Auth0]
[API]

package "main-site" {
  [public-page]
  [profile-page]
}

[public-page] <- -> sanity
[profile-page] <- -> Auth0
[profile-page] <- -> API
API <- -> MySQL

@enduml

@startuml







<style>
  root {
    BackgroundColor white
    FontColor black
    FontName Verdana
    HyperLinkColor blue
    LineColor black
    LineThickness 1
    Margin 5
  }
  caption {
    LineThickness 0
  }
  footer {
    LineThickness 0
  }
  header {
    LineThickness 0
  }
  node {
    MaximumWidth 300
  }
  title {
    FontSize 22
    LineThickness 0
  }
</style>

skinparam ArrowLollipopColor black
skinparam BackgroundColor white
skinparam DefaultFontName Verdana
skinparam DefaultMonospacedFontName Courier
skinparam LifelineStrategy nosolid
skinparam ParticipantPadding 10
skinparam SequenceLifeLineBorderColor black
skinparam Shadowing false
skinparam UseBetaStyle true

skinparam Activity {
  BackgroundColor white
  BarColor black
  BorderColor black
  FontColor black
  FontName Verdana
}
skinparam Boundary {
  FontColor black
}
skinparam Box {
  Padding 5
}
skinparam CircledCharacter {
  FontColor black
  FontName Courier
  Radius 9
}
skinparam Class {
  BackgroundColor white
  BorderColor black
  FontColor black
  FontName Verdana
}
skinparam ClassAttribute {
  FontColor black
  FontName Verdana
}
skinparam ClassStereotype {
  FontColor black
  FontName Verdana
}
skinparam Footer {
  FontColor black
  FontName Verdana
}
skinparam Header {
  FontColor black
  FontName Verdana
}
skinparam Hyperlink {
  Color blue
}
skinparam IconPackage {
  Color black
  BackgroundColor white
}
skinparam IconPrivate {
  Color black
  BackgroundColor white
}
skinparam IconProtected {
  Color black
  BackgroundColor white
}
skinparam IconPublic {
  Color black
  BackgroundColor white
}
skinparam Note {
  FontColor black
  FontName Verdana
}
skinparam Object {
  BorderColor black
}
skinparam Package {
  BorderColor black
  FontColor black
  FontName Verdana
}
skinparam State {
  BackgroundColor white
  BorderColor black
}
skinparam StereotypeA {
  BackgroundColor white
  BorderColor black
}
skinparam StereotypeC {
  BackgroundColor white
  BorderColor black
}
skinparam StereotypeE {
  BackgroundColor white
  BorderColor black
}
skinparam StereotypeI {
  BackgroundColor white
  BorderColor black
}
skinparam StereotypeN {
  BackgroundColor white
  BorderColor black
}
skinparam UseCaseStereoType {
  FontColor black
  FontName Verdana
}
skinparam componentStyle rectangle

database MySQL

[sanity]
[Auth0]
[API]

package "main-site" {
  [public-page]
  [profile-page]
}

[public-page] <- -> sanity
[profile-page] <- -> Auth0
[profile-page] <- -> API
API <- -> MySQL

@enduml

PlantUML version 1.2022.0(Tue Jan 11 17:16:42 CET 2022)
(GPL source distribution)
Java Runtime: OpenJDK Runtime Environment
JVM: OpenJDK 64-Bit Server VM
Default Encoding: UTF-8
Language: en
Country: GB
--></g></svg>